<svg id="Capa_1" enable-background="new 0 0 512.022 512.022" height="512" viewBox="0 0 512.022 512.022" width="512" xmlns="http://www.w3.org/2000/svg"><path d="m459.773 97.753c-33.901-33.906-81.112-52.313-133.476-52.217-34.402-29.515-75.233-45.44-118.173-45.521-.027-.001-.054-.001-.081-.001-.082 0-.163-.004-.245-.004-56.148 0-108.724 27.067-148.042 76.218-38.534 48.169-59.756 112.016-59.756 179.783s21.222 131.615 59.756 179.783c39.319 49.149 91.895 76.217 148.042 76.217h.001.001c3.629 0 7.243-.118 10.839-.343 3.952.217 7.927.339 11.93.339 31.2-.001 63.762-6.568 94.953-19.227 36.437-14.787 71.074-37.981 100.167-67.075 47.919-47.918 78.06-108.072 84.873-169.38 6.951-62.556-11.086-118.872-50.789-158.572zm-215.113 379.36c21.649-31.231 29.843-65.061 24.975-102.536-5.559-42.797-27.401-84.833-48.525-125.484-20.837-40.102-40.518-77.979-45.395-115.516-5.038-38.782 7.101-71.787 38.122-103.422 95.254 4.063 171.762 103.808 171.762 225.856 0 108.556-60.53 199.469-140.939 221.102zm-214.66-221.102c0-108.557 60.529-199.469 140.938-221.103-21.648 31.23-29.842 65.061-24.974 102.534 5.56 42.796 27.402 84.831 48.524 125.482 20.837 40.103 40.52 77.98 45.395 115.517 5.038 38.783-7.101 71.789-38.123 103.425-95.252-4.062-171.76-103.807-171.76-225.855zm450.746-2.998c-6.062 54.562-33.148 108.359-76.269 151.479-18.947 18.948-40.151 34.803-62.52 47.15 4.787-4.999 9.425-10.274 13.885-15.849 38.535-48.168 59.757-112.017 59.757-179.783 0-66.897-20.694-129.965-58.296-177.912 31.722 5.439 59.812 19.419 81.257 40.866 33.128 33.128 48.11 80.733 42.186 134.049z"/></svg>