<svg id="Capa_1" enable-background="new 0 0 512 512" height="512" viewBox="0 0 512 512" width="512" xmlns="http://www.w3.org/2000/svg"><g><g fill="#dbe6fa"><path d="m235.515 130.462c-8.284 0-15-6.716-15-15 0-8.659-2.029-12.3-5.102-17.812-3.965-7.112-8.898-15.963-8.898-32.419s4.934-25.307 8.898-32.419c3.072-5.512 5.102-9.153 5.102-17.812 0-8.284 6.716-15 15-15s15 6.716 15 15c0 16.456-4.934 25.307-8.898 32.418-3.072 5.512-5.102 9.153-5.102 17.813s2.029 12.301 5.102 17.813c3.965 7.112 8.898 15.962 8.898 32.418 0 8.284-6.716 15-15 15z"/><path d="m348.533 130.462c-8.284 0-15-6.716-15-15 0-8.659-2.029-12.3-5.102-17.812-3.965-7.112-8.898-15.963-8.898-32.419s4.934-25.307 8.898-32.419c3.072-5.512 5.102-9.153 5.102-17.812 0-8.284 6.716-15 15-15s15 6.716 15 15c0 16.456-4.934 25.307-8.898 32.418-3.072 5.512-5.102 9.153-5.102 17.813s2.029 12.301 5.102 17.813c3.965 7.112 8.898 15.962 8.898 32.418 0 8.284-6.716 15-15 15z"/><path d="m119.995 130.462c-8.284 0-15-6.716-15-15 0-8.659-2.029-12.3-5.102-17.812-3.965-7.112-8.898-15.963-8.898-32.419s4.934-25.307 8.898-32.419c3.072-5.512 5.102-9.153 5.102-17.812 0-8.284 6.716-15 15-15s15 6.716 15 15c0 16.456-4.934 25.307-8.898 32.418-3.072 5.512-5.102 9.153-5.102 17.813s2.029 12.301 5.102 17.813c3.965 7.112 8.898 15.962 8.898 32.418 0 8.284-6.716 15-15 15z"/></g><path d="m441.107 416.333h-43.362-320.673-43.363c-8.284 0-15 6.716-15 15s6.716 15 15 15h28.373c.225 36.247 29.772 65.667 66.071 65.667h218.511c36.299 0 65.846-29.42 66.071-65.667h28.373c8.284 0 15-6.716 15-15s-6.717-15-15.001-15z" fill="#ff6c6c"/><path d="m334.969 416.617h-174.352c-55.34 0-100.618-45.278-100.618-100.618v-117.051c0-11.555 9.368-20.923 20.923-20.923h156.486l139.917 15.487-18.565 154.636c-.001 30.755 6.963 68.469-23.791 68.469z" fill="#f0f1ff"/><path d="m441.107 416.333h-43.362-160.337v95.667h109.255c36.299 0 65.846-29.42 66.071-65.667h28.373c8.284 0 15-6.716 15-15s-6.716-15-15-15z" fill="#e63950"/><path d="m451.567 178.025h-60.681-153.478v238.592h97.561c30.754 0 55.917-25.163 55.917-55.917v-20.906h6.359c52.96 0 96.046-43.086 96.046-96.046v-23.999c0-23.007-18.717-41.724-41.724-41.724zm11.724 65.723c0 36.418-29.628 66.046-66.046 66.046h-6.359v-101.769h60.681c6.465 0 11.724 5.259 11.724 11.724z" fill="#dce7fb"/></g></svg>